<svg width="324" height="118" viewBox="0 0 324 118" fill="none" xmlns="http://www.w3.org/2000/svg">
<path d="M59.9326 62.3331L62.066 60.2641L59.5312 58.3058L57.528 60.1772L59.9326 62.3331Z" fill="#0E0E0E"/>
<path d="M57.331 56.7136L59.4644 54.6446L56.9296 52.6863L54.9263 54.5578L57.331 56.7136Z" fill="#0E0E0E"/>
<path d="M50.8268 59.9014L52.228 58.568L50.8268 57.0525L49.4294 58.568L50.8268 59.9014Z" fill="#0E0E0E"/>
<path d="M60.2825 -3L14.8999 110.893H106.878L60.2825 -3Z" fill="#A4A6A3"/>
<path d="M32.4919 14.5919L0.985718 92.3907H20.4354L43.6006 34.0416L32.4919 14.5919Z" fill="#A4A6A3"/>
<path d="M76.0167 31.2739L96.3763 81.282H112.869L84.3577 12.7342L76.0167 31.2739Z" fill="#A4A6A3"/>
<path d="M59.2589 103.689L77.9882 98.1915L79.3911 102.855L62.6332 107.784L59.2589 103.689Z" fill="#0E0E0E"/>
<path d="M58.0836 107.784L41.3258 102.855L42.7286 98.1915L61.4579 103.689L58.0836 107.784Z" fill="#0E0E0E"/>
<path d="M63.5053 104.296L83.5616 112.182L81.7417 117.11L59.6002 108.428L63.5053 104.296Z" fill="#0E0E0E"/>
<path d="M60.8893 108.656L38.7477 117.3L36.9658 112.409L56.9842 104.523L60.8893 108.656Z" fill="#0E0E0E"/>
<path d="M122.461 66.0028L110.708 93.6798H135.238L122.461 66.0028Z" fill="#A4A6A3"/>
<path d="M7.69647 27.9375L0 46.136H16.1133L7.69647 27.9375Z" fill="#A4A6A3"/>
<path d="M65.5147 91.0259L67.6758 86.4004L65.0976 82.0403L63.0503 86.2108L65.5147 91.0259Z" fill="#0E0E0E"/>
<path d="M62.7091 79.5001L64.1498 76.4291L62.4437 73.5097L61.0788 76.2774L62.7091 79.5001Z" fill="#0E0E0E"/>
<path d="M56.4912 85.9075L58.4248 82.7985L56.9462 79.8413L54.9368 82.7606L56.4912 85.9075Z" fill="#0E0E0E"/>
<path d="M60.3206 108.39L71.2397 94.7792L60.2827 78.5901L49.2877 94.7034L60.3206 108.39Z" fill="#0E0E0E"/>
<path d="M184.086 99.0078C184.32 99.0078 184.516 99.1016 184.672 99.2891C184.844 99.4766 184.93 99.7031 184.93 99.9688C184.93 100.281 184.852 100.516 184.695 100.672C184.211 101.188 183.125 101.883 181.438 102.758C179.172 103.945 176.812 104.539 174.359 104.539C171.766 104.539 169.281 103.945 166.906 102.758C163.672 101.148 161.211 98.8203 159.523 95.7734C158.211 93.3828 157.555 90.8203 157.555 88.0859C157.555 85.3359 158.234 82.7266 159.594 80.2578C161.109 77.4922 163.25 75.3203 166.016 73.7422C168.578 72.2891 171.305 71.5625 174.195 71.5625C175.961 71.5625 177.742 71.8828 179.539 72.5234C181.336 73.1484 182.875 74 184.156 75.0781C184.688 75.5156 184.953 75.9219 184.953 76.2969C184.953 76.5625 184.859 76.8125 184.672 77.0469C184.5 77.2812 184.32 77.3984 184.133 77.3984C183.977 77.3984 183.164 76.8594 181.695 75.7812C180.836 75.1406 179.664 74.6016 178.18 74.1641C176.695 73.7266 175.305 73.5078 174.008 73.5078C171.648 73.5078 169.352 74.1562 167.117 75.4531C164.633 76.9062 162.727 78.8828 161.398 81.3828C160.258 83.5234 159.688 85.8672 159.688 88.4141C159.688 90.6172 160.227 92.7266 161.305 94.7422C162.695 97.3516 164.82 99.4062 167.68 100.906C169.82 102.031 171.953 102.594 174.078 102.594C176.266 102.594 178.602 101.984 181.086 100.766C181.414 100.609 182.016 100.219 182.891 99.5938C183.422 99.2031 183.82 99.0078 184.086 99.0078ZM208.578 93.4766H194.938L191.188 102.805C190.969 103.336 190.773 103.68 190.602 103.836C190.445 103.977 190.18 104.047 189.805 104.047C189.586 104.047 189.367 103.953 189.148 103.766C188.945 103.562 188.844 103.352 188.844 103.133C188.844 102.945 188.945 102.594 189.148 102.078L200.539 73.8359C200.852 73.0547 201.078 72.5547 201.219 72.3359C201.375 72.1172 201.57 72.0078 201.805 72.0078C202.055 72.0078 202.258 72.1172 202.414 72.3359C202.57 72.5547 202.805 73.0547 203.117 73.8359L214.367 102.078C214.57 102.594 214.672 102.945 214.672 103.133C214.672 103.352 214.562 103.562 214.344 103.766C214.141 103.953 213.93 104.047 213.711 104.047C213.336 104.047 213.062 103.977 212.891 103.836C212.734 103.68 212.547 103.336 212.328 102.805L208.578 93.4766ZM207.805 91.5547L201.805 75.7812L195.711 91.5547H207.805ZM237.242 100.508L249.477 73.1094C249.805 72.3438 250.18 71.9609 250.602 71.9609C250.945 71.9609 251.188 72.0625 251.328 72.2656C251.469 72.4688 251.57 72.8672 251.633 73.4609L254.68 102.289C254.711 102.617 254.727 102.867 254.727 103.039C254.727 103.68 254.375 104 253.672 104C253.297 104 253.031 103.906 252.875 103.719C252.734 103.516 252.633 103.117 252.57 102.523L249.852 76.8359L238.391 102.711C238.141 103.258 237.945 103.609 237.805 103.766C237.664 103.922 237.477 104 237.242 104C236.992 104 236.797 103.922 236.656 103.766C236.531 103.609 236.344 103.258 236.094 102.711L224.68 76.8359L222.055 102.5C221.992 103.109 221.883 103.516 221.727 103.719C221.586 103.906 221.328 104 220.953 104C220.266 104 219.922 103.672 219.922 103.016C219.922 102.938 219.945 102.703 219.992 102.312L222.992 73.4844C223.039 72.9219 223.133 72.5391 223.273 72.3359C223.43 72.1172 223.672 72.0078 224 72.0078C224.438 72.0078 224.82 72.3828 225.148 73.1328L237.242 100.508ZM265.273 88.8125V102.406C265.273 103.047 265.211 103.445 265.086 103.602C264.883 103.867 264.602 104 264.242 104C263.82 104 263.539 103.891 263.398 103.672C263.258 103.453 263.188 103.031 263.188 102.406V73.6016C263.188 72.8984 263.273 72.4609 263.445 72.2891C263.633 72.1016 264.078 72.0078 264.781 72.0078H269.352C270.977 72.0078 272.344 72.2031 273.453 72.5938C274.562 72.9844 275.531 73.6094 276.359 74.4688C277.891 76.0625 278.656 78.0469 278.656 80.4219C278.656 83 277.836 85.0547 276.195 86.5859C274.617 88.0703 272.352 88.8125 269.398 88.8125H265.273ZM265.273 86.8906H269.469C271.672 86.8906 273.422 86.2578 274.719 84.9922C275.922 83.8203 276.523 82.2969 276.523 80.4219C276.523 78.4375 275.945 76.8672 274.789 75.7109C273.586 74.5234 271.703 73.9297 269.141 73.9297H265.273V86.8906Z" fill="#A4A6A3"/>
<path d="M163.328 50.6641L172.117 24.2734C172.305 23.7266 172.477 23.375 172.633 23.2188C172.789 23.0469 173.047 22.9609 173.406 22.9609C173.641 22.9609 173.859 23.0625 174.062 23.2656C174.266 23.4531 174.367 23.6562 174.367 23.875C174.367 24.0469 174.281 24.3828 174.109 24.8828L164.43 53.7344C164.258 54.2656 164.102 54.6094 163.961 54.7656C163.82 54.9219 163.602 55 163.305 55C162.852 55 162.484 54.5859 162.203 53.7578L152.312 24.8828C152.141 24.3828 152.055 24.0547 152.055 23.8984C152.055 23.6484 152.156 23.4297 152.359 23.2422C152.578 23.0547 152.828 22.9609 153.109 22.9609C153.469 22.9609 153.727 23.0469 153.883 23.2188C154.039 23.375 154.211 23.7188 154.398 24.25L163.328 50.6641ZM181.82 24.6016V53.4062C181.82 54.0469 181.758 54.4453 181.633 54.6016C181.43 54.8672 181.148 55 180.789 55C180.367 55 180.086 54.8906 179.945 54.6719C179.805 54.4531 179.734 54.0312 179.734 53.4062V24.6016C179.734 23.9609 179.797 23.5625 179.922 23.4062C180.125 23.1406 180.414 23.0078 180.789 23.0078C181.195 23.0078 181.469 23.1172 181.609 23.3359C181.75 23.5547 181.82 23.9766 181.82 24.6016ZM198.789 22.5625C200.07 22.5625 201.297 22.8281 202.469 23.3594C203.641 23.875 204.656 24.6094 205.516 25.5625C206.031 26.1406 206.289 26.5859 206.289 26.8984C206.289 27.1797 206.18 27.4297 205.961 27.6484C205.742 27.8516 205.492 27.9531 205.211 27.9531C204.93 27.9531 204.656 27.7969 204.391 27.4844C203.844 26.8125 203.461 26.375 203.242 26.1719C202.039 25.0625 200.531 24.5078 198.719 24.5078C196.797 24.5078 195.281 25.1875 194.172 26.5469C193.188 27.75 192.695 29.0938 192.695 30.5781C192.695 31.8594 193.094 32.9297 193.891 33.7891C194.688 34.6328 196.188 35.5859 198.391 36.6484C201.562 38.1641 203.688 39.2734 204.766 39.9766C207.031 41.4609 208.164 43.5078 208.164 46.1172C208.164 48.9766 207.016 51.3438 204.719 53.2188C202.828 54.7656 200.633 55.5391 198.133 55.5391C195.195 55.5391 192.719 54.4062 190.703 52.1406C190.25 51.6406 189.852 51.0859 189.508 50.4766C189.164 49.8672 188.992 49.4141 188.992 49.1172C188.992 48.8516 189.102 48.6172 189.32 48.4141C189.539 48.2109 189.789 48.1094 190.07 48.1094C190.352 48.1094 190.555 48.1797 190.68 48.3203C190.805 48.4609 191.086 48.9375 191.523 49.75C192.102 50.8125 192.875 51.6562 193.844 52.2812C195.156 53.1562 196.602 53.5938 198.18 53.5938C200.32 53.5938 202.164 52.8594 203.711 51.3906C205.258 49.9219 206.031 48.1719 206.031 46.1406C206.031 44.0625 204.984 42.4141 202.891 41.1953C202.156 40.7734 200.164 39.7656 196.914 38.1719C194.43 36.9531 192.781 35.8281 191.969 34.7969C191.031 33.6406 190.562 32.1719 190.562 30.3906C190.562 27.9844 191.445 26.0312 193.211 24.5312C194.727 23.2188 196.586 22.5625 198.789 22.5625ZM217.164 24.6016V43.0234C217.164 44.9922 217.242 46.4531 217.398 47.4062C217.555 48.3594 217.859 49.1953 218.312 49.9141C219.016 51.0078 220.133 51.9141 221.664 52.6328C223.039 53.2734 224.469 53.5938 225.953 53.5938C228.062 53.5938 229.992 52.9844 231.742 51.7656C232.961 50.9062 233.766 49.9062 234.156 48.7656C234.547 47.625 234.742 45.7109 234.742 43.0234V24.6016C234.742 23.9609 234.805 23.5625 234.93 23.4062C235.133 23.1406 235.422 23.0078 235.797 23.0078C236.203 23.0078 236.477 23.1172 236.617 23.3359C236.758 23.5547 236.828 23.9766 236.828 24.6016V43.5859C236.828 46.1016 236.656 47.875 236.312 48.9062C235.594 51.0938 234.109 52.8047 231.859 54.0391C230.062 55.0391 228.094 55.5391 225.953 55.5391C223.391 55.5391 221.109 54.8516 219.109 53.4766C217.094 52.0859 215.844 50.2891 215.359 48.0859C215.172 47.1953 215.078 45.6953 215.078 43.5859V24.6016C215.078 23.9609 215.141 23.5625 215.266 23.4062C215.469 23.1406 215.758 23.0078 216.133 23.0078C216.539 23.0078 216.812 23.1172 216.953 23.3359C217.094 23.5547 217.164 23.9766 217.164 24.6016ZM261.109 44.4766H247.469L243.719 53.8047C243.5 54.3359 243.305 54.6797 243.133 54.8359C242.977 54.9766 242.711 55.0469 242.336 55.0469C242.117 55.0469 241.898 54.9531 241.68 54.7656C241.477 54.5625 241.375 54.3516 241.375 54.1328C241.375 53.9453 241.477 53.5938 241.68 53.0781L253.07 24.8359C253.383 24.0547 253.609 23.5547 253.75 23.3359C253.906 23.1172 254.102 23.0078 254.336 23.0078C254.586 23.0078 254.789 23.1172 254.945 23.3359C255.102 23.5547 255.336 24.0547 255.648 24.8359L266.898 53.0781C267.102 53.5938 267.203 53.9453 267.203 54.1328C267.203 54.3516 267.094 54.5625 266.875 54.7656C266.672 54.9531 266.461 55.0469 266.242 55.0469C265.867 55.0469 265.594 54.9766 265.422 54.8359C265.266 54.6797 265.078 54.3359 264.859 53.8047L261.109 44.4766ZM260.336 42.5547L254.336 26.7812L248.242 42.5547H260.336ZM274.727 53.0781H281.219C281.828 53.0781 282.242 53.1484 282.461 53.2891C282.695 53.4297 282.812 53.6797 282.812 54.0391C282.812 54.3984 282.695 54.6484 282.461 54.7891C282.242 54.9297 281.828 55 281.219 55H274.234C273.531 55 273.086 54.9141 272.898 54.7422C272.727 54.5547 272.641 54.1094 272.641 53.4062V24.6016C272.641 23.9609 272.703 23.5625 272.828 23.4062C273.031 23.1406 273.32 23.0078 273.695 23.0078C274.102 23.0078 274.375 23.1172 274.516 23.3359C274.656 23.5547 274.727 23.9766 274.727 24.6016V53.0781Z" fill="#A4A6A3"/>
</svg>
