<svg width="446" height="128" viewBox="0 0 446 128" fill="none" xmlns="http://www.w3.org/2000/svg">
<g clip-path="url(#clip0_10_101)">
<path d="M104.933 62.3331L107.066 60.2641L104.531 58.3058L102.528 60.1772L104.933 62.3331Z" fill="#0E0E0E"/>
<path d="M102.331 56.7136L104.464 54.6446L101.93 52.6863L99.9263 54.5578L102.331 56.7136Z" fill="#0E0E0E"/>
<path d="M95.8268 59.9014L97.228 58.568L95.8268 57.0525L94.4294 58.568L95.8268 59.9014Z" fill="#0E0E0E"/>
<path d="M105.283 -3L59.8999 110.893H151.878L105.283 -3Z" fill="#A4A6A3"/>
<path d="M77.4919 14.5919L45.9857 92.3907H65.4354L88.6006 34.0416L77.4919 14.5919Z" fill="#A4A6A3"/>
<path d="M121.017 31.2739L141.376 81.282H157.869L129.358 12.7342L121.017 31.2739Z" fill="#A4A6A3"/>
<path d="M104.259 103.689L122.988 98.1915L124.391 102.855L107.633 107.784L104.259 103.689Z" fill="#0E0E0E"/>
<path d="M103.084 107.784L86.3258 102.855L87.7286 98.1915L106.458 103.689L103.084 107.784Z" fill="#0E0E0E"/>
<path d="M108.505 104.296L128.562 112.182L126.742 117.11L104.6 108.428L108.505 104.296Z" fill="#0E0E0E"/>
<path d="M105.889 108.656L83.7477 117.3L81.9658 112.409L101.984 104.523L105.889 108.656Z" fill="#0E0E0E"/>
<path d="M167.461 66.0028L155.708 93.6798H180.238L167.461 66.0028Z" fill="#A4A6A3"/>
<path d="M52.6965 27.9375L45 46.136H61.1133L52.6965 27.9375Z" fill="#A4A6A3"/>
<path d="M110.515 91.0259L112.676 86.4004L110.098 82.0403L108.05 86.2108L110.515 91.0259Z" fill="#0E0E0E"/>
<path d="M107.709 79.5001L109.15 76.4291L107.444 73.5097L106.079 76.2774L107.709 79.5001Z" fill="#0E0E0E"/>
<path d="M101.491 85.9075L103.425 82.7985L101.946 79.8413L99.9368 82.7606L101.491 85.9075Z" fill="#0E0E0E"/>
<path d="M105.321 108.39L116.24 94.7792L105.283 78.5901L94.2877 94.7034L105.321 108.39Z" fill="#0E0E0E"/>
<path d="M229.086 99.0078C229.32 99.0078 229.516 99.1016 229.672 99.2891C229.844 99.4766 229.93 99.7031 229.93 99.9688C229.93 100.281 229.852 100.516 229.695 100.672C229.211 101.188 228.125 101.883 226.438 102.758C224.172 103.945 221.812 104.539 219.359 104.539C216.766 104.539 214.281 103.945 211.906 102.758C208.672 101.148 206.211 98.8203 204.523 95.7734C203.211 93.3828 202.555 90.8203 202.555 88.0859C202.555 85.3359 203.234 82.7266 204.594 80.2578C206.109 77.4922 208.25 75.3203 211.016 73.7422C213.578 72.2891 216.305 71.5625 219.195 71.5625C220.961 71.5625 222.742 71.8828 224.539 72.5234C226.336 73.1484 227.875 74 229.156 75.0781C229.688 75.5156 229.953 75.9219 229.953 76.2969C229.953 76.5625 229.859 76.8125 229.672 77.0469C229.5 77.2812 229.32 77.3984 229.133 77.3984C228.977 77.3984 228.164 76.8594 226.695 75.7812C225.836 75.1406 224.664 74.6016 223.18 74.1641C221.695 73.7266 220.305 73.5078 219.008 73.5078C216.648 73.5078 214.352 74.1562 212.117 75.4531C209.633 76.9062 207.727 78.8828 206.398 81.3828C205.258 83.5234 204.688 85.8672 204.688 88.4141C204.688 90.6172 205.227 92.7266 206.305 94.7422C207.695 97.3516 209.82 99.4062 212.68 100.906C214.82 102.031 216.953 102.594 219.078 102.594C221.266 102.594 223.602 101.984 226.086 100.766C226.414 100.609 227.016 100.219 227.891 99.5938C228.422 99.2031 228.82 99.0078 229.086 99.0078ZM253.578 93.4766H239.938L236.188 102.805C235.969 103.336 235.773 103.68 235.602 103.836C235.445 103.977 235.18 104.047 234.805 104.047C234.586 104.047 234.367 103.953 234.148 103.766C233.945 103.562 233.844 103.352 233.844 103.133C233.844 102.945 233.945 102.594 234.148 102.078L245.539 73.8359C245.852 73.0547 246.078 72.5547 246.219 72.3359C246.375 72.1172 246.57 72.0078 246.805 72.0078C247.055 72.0078 247.258 72.1172 247.414 72.3359C247.57 72.5547 247.805 73.0547 248.117 73.8359L259.367 102.078C259.57 102.594 259.672 102.945 259.672 103.133C259.672 103.352 259.562 103.562 259.344 103.766C259.141 103.953 258.93 104.047 258.711 104.047C258.336 104.047 258.062 103.977 257.891 103.836C257.734 103.68 257.547 103.336 257.328 102.805L253.578 93.4766ZM252.805 91.5547L246.805 75.7812L240.711 91.5547H252.805ZM282.242 100.508L294.477 73.1094C294.805 72.3438 295.18 71.9609 295.602 71.9609C295.945 71.9609 296.188 72.0625 296.328 72.2656C296.469 72.4688 296.57 72.8672 296.633 73.4609L299.68 102.289C299.711 102.617 299.727 102.867 299.727 103.039C299.727 103.68 299.375 104 298.672 104C298.297 104 298.031 103.906 297.875 103.719C297.734 103.516 297.633 103.117 297.57 102.523L294.852 76.8359L283.391 102.711C283.141 103.258 282.945 103.609 282.805 103.766C282.664 103.922 282.477 104 282.242 104C281.992 104 281.797 103.922 281.656 103.766C281.531 103.609 281.344 103.258 281.094 102.711L269.68 76.8359L267.055 102.5C266.992 103.109 266.883 103.516 266.727 103.719C266.586 103.906 266.328 104 265.953 104C265.266 104 264.922 103.672 264.922 103.016C264.922 102.938 264.945 102.703 264.992 102.312L267.992 73.4844C268.039 72.9219 268.133 72.5391 268.273 72.3359C268.43 72.1172 268.672 72.0078 269 72.0078C269.438 72.0078 269.82 72.3828 270.148 73.1328L282.242 100.508ZM310.273 88.8125V102.406C310.273 103.047 310.211 103.445 310.086 103.602C309.883 103.867 309.602 104 309.242 104C308.82 104 308.539 103.891 308.398 103.672C308.258 103.453 308.188 103.031 308.188 102.406V73.6016C308.188 72.8984 308.273 72.4609 308.445 72.2891C308.633 72.1016 309.078 72.0078 309.781 72.0078H314.352C315.977 72.0078 317.344 72.2031 318.453 72.5938C319.562 72.9844 320.531 73.6094 321.359 74.4688C322.891 76.0625 323.656 78.0469 323.656 80.4219C323.656 83 322.836 85.0547 321.195 86.5859C319.617 88.0703 317.352 88.8125 314.398 88.8125H310.273ZM310.273 86.8906H314.469C316.672 86.8906 318.422 86.2578 319.719 84.9922C320.922 83.8203 321.523 82.2969 321.523 80.4219C321.523 78.4375 320.945 76.8672 319.789 75.7109C318.586 74.5234 316.703 73.9297 314.141 73.9297H310.273V86.8906Z" fill="#A4A6A3"/>
<path d="M208.328 50.6641L217.117 24.2734C217.305 23.7266 217.477 23.375 217.633 23.2188C217.789 23.0469 218.047 22.9609 218.406 22.9609C218.641 22.9609 218.859 23.0625 219.062 23.2656C219.266 23.4531 219.367 23.6562 219.367 23.875C219.367 24.0469 219.281 24.3828 219.109 24.8828L209.43 53.7344C209.258 54.2656 209.102 54.6094 208.961 54.7656C208.82 54.9219 208.602 55 208.305 55C207.852 55 207.484 54.5859 207.203 53.7578L197.312 24.8828C197.141 24.3828 197.055 24.0547 197.055 23.8984C197.055 23.6484 197.156 23.4297 197.359 23.2422C197.578 23.0547 197.828 22.9609 198.109 22.9609C198.469 22.9609 198.727 23.0469 198.883 23.2188C199.039 23.375 199.211 23.7188 199.398 24.25L208.328 50.6641ZM226.82 24.6016V53.4062C226.82 54.0469 226.758 54.4453 226.633 54.6016C226.43 54.8672 226.148 55 225.789 55C225.367 55 225.086 54.8906 224.945 54.6719C224.805 54.4531 224.734 54.0312 224.734 53.4062V24.6016C224.734 23.9609 224.797 23.5625 224.922 23.4062C225.125 23.1406 225.414 23.0078 225.789 23.0078C226.195 23.0078 226.469 23.1172 226.609 23.3359C226.75 23.5547 226.82 23.9766 226.82 24.6016ZM243.789 22.5625C245.07 22.5625 246.297 22.8281 247.469 23.3594C248.641 23.875 249.656 24.6094 250.516 25.5625C251.031 26.1406 251.289 26.5859 251.289 26.8984C251.289 27.1797 251.18 27.4297 250.961 27.6484C250.742 27.8516 250.492 27.9531 250.211 27.9531C249.93 27.9531 249.656 27.7969 249.391 27.4844C248.844 26.8125 248.461 26.375 248.242 26.1719C247.039 25.0625 245.531 24.5078 243.719 24.5078C241.797 24.5078 240.281 25.1875 239.172 26.5469C238.188 27.75 237.695 29.0938 237.695 30.5781C237.695 31.8594 238.094 32.9297 238.891 33.7891C239.688 34.6328 241.188 35.5859 243.391 36.6484C246.562 38.1641 248.688 39.2734 249.766 39.9766C252.031 41.4609 253.164 43.5078 253.164 46.1172C253.164 48.9766 252.016 51.3438 249.719 53.2188C247.828 54.7656 245.633 55.5391 243.133 55.5391C240.195 55.5391 237.719 54.4062 235.703 52.1406C235.25 51.6406 234.852 51.0859 234.508 50.4766C234.164 49.8672 233.992 49.4141 233.992 49.1172C233.992 48.8516 234.102 48.6172 234.32 48.4141C234.539 48.2109 234.789 48.1094 235.07 48.1094C235.352 48.1094 235.555 48.1797 235.68 48.3203C235.805 48.4609 236.086 48.9375 236.523 49.75C237.102 50.8125 237.875 51.6562 238.844 52.2812C240.156 53.1562 241.602 53.5938 243.18 53.5938C245.32 53.5938 247.164 52.8594 248.711 51.3906C250.258 49.9219 251.031 48.1719 251.031 46.1406C251.031 44.0625 249.984 42.4141 247.891 41.1953C247.156 40.7734 245.164 39.7656 241.914 38.1719C239.43 36.9531 237.781 35.8281 236.969 34.7969C236.031 33.6406 235.562 32.1719 235.562 30.3906C235.562 27.9844 236.445 26.0312 238.211 24.5312C239.727 23.2188 241.586 22.5625 243.789 22.5625ZM262.164 24.6016V43.0234C262.164 44.9922 262.242 46.4531 262.398 47.4062C262.555 48.3594 262.859 49.1953 263.312 49.9141C264.016 51.0078 265.133 51.9141 266.664 52.6328C268.039 53.2734 269.469 53.5938 270.953 53.5938C273.062 53.5938 274.992 52.9844 276.742 51.7656C277.961 50.9062 278.766 49.9062 279.156 48.7656C279.547 47.625 279.742 45.7109 279.742 43.0234V24.6016C279.742 23.9609 279.805 23.5625 279.93 23.4062C280.133 23.1406 280.422 23.0078 280.797 23.0078C281.203 23.0078 281.477 23.1172 281.617 23.3359C281.758 23.5547 281.828 23.9766 281.828 24.6016V43.5859C281.828 46.1016 281.656 47.875 281.312 48.9062C280.594 51.0938 279.109 52.8047 276.859 54.0391C275.062 55.0391 273.094 55.5391 270.953 55.5391C268.391 55.5391 266.109 54.8516 264.109 53.4766C262.094 52.0859 260.844 50.2891 260.359 48.0859C260.172 47.1953 260.078 45.6953 260.078 43.5859V24.6016C260.078 23.9609 260.141 23.5625 260.266 23.4062C260.469 23.1406 260.758 23.0078 261.133 23.0078C261.539 23.0078 261.812 23.1172 261.953 23.3359C262.094 23.5547 262.164 23.9766 262.164 24.6016ZM306.109 44.4766H292.469L288.719 53.8047C288.5 54.3359 288.305 54.6797 288.133 54.8359C287.977 54.9766 287.711 55.0469 287.336 55.0469C287.117 55.0469 286.898 54.9531 286.68 54.7656C286.477 54.5625 286.375 54.3516 286.375 54.1328C286.375 53.9453 286.477 53.5938 286.68 53.0781L298.07 24.8359C298.383 24.0547 298.609 23.5547 298.75 23.3359C298.906 23.1172 299.102 23.0078 299.336 23.0078C299.586 23.0078 299.789 23.1172 299.945 23.3359C300.102 23.5547 300.336 24.0547 300.648 24.8359L311.898 53.0781C312.102 53.5938 312.203 53.9453 312.203 54.1328C312.203 54.3516 312.094 54.5625 311.875 54.7656C311.672 54.9531 311.461 55.0469 311.242 55.0469C310.867 55.0469 310.594 54.9766 310.422 54.8359C310.266 54.6797 310.078 54.3359 309.859 53.8047L306.109 44.4766ZM305.336 42.5547L299.336 26.7812L293.242 42.5547H305.336ZM319.727 53.0781H326.219C326.828 53.0781 327.242 53.1484 327.461 53.2891C327.695 53.4297 327.812 53.6797 327.812 54.0391C327.812 54.3984 327.695 54.6484 327.461 54.7891C327.242 54.9297 326.828 55 326.219 55H319.234C318.531 55 318.086 54.9141 317.898 54.7422C317.727 54.5547 317.641 54.1094 317.641 53.4062V24.6016C317.641 23.9609 317.703 23.5625 317.828 23.4062C318.031 23.1406 318.32 23.0078 318.695 23.0078C319.102 23.0078 319.375 23.1172 319.516 23.3359C319.656 23.5547 319.727 23.9766 319.727 24.6016V53.0781Z" fill="#A4A6A3"/>
</g>
<defs>
<clipPath id="clip0_10_101">
<rect width="446" height="128" fill="white"/>
</clipPath>
</defs>
</svg>
