<svg width="136" height="114" viewBox="0 0 136 114" fill="none" xmlns="http://www.w3.org/2000/svg">
<path d="M122.461 69.0027L110.708 96.6796H135.238L122.461 69.0027Z" fill="#A4A6A3"/>
<path d="M7.69647 30.9375L0 49.136H16.1133L7.69647 30.9375Z" fill="#A4A6A3"/>
<path fill-rule="evenodd" clip-rule="evenodd" d="M60.2825 0L14.8999 113.893H40.8151L52.7153 109.205L41.3258 105.855L42.7286 101.191L55.0038 104.794L49.2877 97.7034L55.9866 87.886L54.9367 85.7607L56.9462 82.8413L57.9961 84.9411L60.2827 81.5901L64.0551 87.1639L65.0976 85.0403L67.6757 89.4004L66.8153 91.2421L71.2397 97.7792L65.5807 104.833L77.9882 101.191L79.391 105.855L68.2068 109.144L80.283 113.893H106.878L60.2825 0ZM60.5338 111.794L55.1593 113.893H65.8848L60.5338 111.794ZM64.1498 79.4291L62.7091 82.5001L61.0788 79.2775L62.4437 76.5098L64.1498 79.4291Z" fill="#A4A6A3"/>
</svg>
